<svg width="26" height="19" viewBox="0 0 26 19" fill="none" xmlns="http://www.w3.org/2000/svg">
<path fill-rule="evenodd" clip-rule="evenodd" d="M22.7827 0.329956H3.18468C1.42821 0.329956 0 1.86433 0 3.74843V15.5816C0 17.467 1.42943 19.0001 3.18468 19.0001H22.7827C24.5392 19.0001 25.9674 17.4657 25.9674 15.5816V3.74843C25.9674 1.86301 24.5392 0.329956 22.7827 0.329956ZM24.4976 15.5816C24.4976 16.5966 23.7271 17.4223 22.7827 17.4223H3.18468C2.23907 17.4223 1.46985 16.5966 1.46985 15.5816V6.94865H24.4976V15.5816ZM24.4976 5.36958H1.46985V3.74843C1.46985 2.73341 2.23907 1.90771 3.18468 1.90771H22.7827C23.7271 1.90771 24.4976 2.7334 24.4976 3.74843V5.36958ZM17.1483 14.1853C17.1483 13.7488 17.4778 13.3964 17.8832 13.3964H20.333C20.7384 13.3964 21.0679 13.7501 21.0679 14.1853C21.0679 14.6205 20.7384 14.9742 20.333 14.9742H17.8832C17.4778 14.9742 17.1483 14.6205 17.1483 14.1853Z" fill="#171930"/>
</svg>
